<svg width="264" height="44" viewBox="0 0 264 44" fill="none" xmlns="http://www.w3.org/2000/svg">
<path d="M16.1734 0C11.8869 0.00405603 7.77723 1.70878 4.74626 4.74001C1.7153 7.77125 0.0107321 11.8813 0.00665837 16.1681V17.3158L0 17.3405V17.7989L0.00665837 17.8001V43.1403H32.3552V16.1681C32.3477 11.8797 30.64 7.76936 27.6065 4.73844C24.573 1.70752 20.4614 0.00346788 16.1734 0ZM21.0824 22.5172C19.1495 22.6084 17.2476 22.0066 15.7189 20.8201C15.1674 20.3758 14.7114 19.8246 14.3781 19.1997C14.0448 18.5748 13.8412 17.889 13.7795 17.1834C13.7466 16.8455 13.7517 16.5049 13.7947 16.1681C13.942 15.1403 14.4241 14.1897 15.1665 13.4637C15.9088 12.7378 16.8699 12.2769 17.9007 12.1527C14.3247 9.9403 10.5824 9.40998 7.27945 10.6525C5.99106 11.1345 4.81311 11.8713 3.81601 12.819C2.81891 13.7667 2.02314 14.9058 1.47631 16.1681L1.09752 17.1834C1.08313 17.2263 1.06885 17.2822 1.05461 17.3266L1.05202 17.2909V17.1834C1.03242 16.9672 1.02946 16.7452 1.02261 16.5248C1.02002 16.4077 1.01096 16.2924 1.01096 16.1744C1.01096 15.7613 1.03722 15.3555 1.06996 14.9517C1.07643 14.8734 1.07495 14.7904 1.08236 14.7135C2.37734 12.4024 4.44962 10.6253 6.93099 9.6979C10.9308 8.19777 15.4611 9.06142 19.6884 12.1224L20.9765 13.0618L19.3855 13.0467C17.2189 13.0013 15.5976 13.9407 14.9916 15.5318C14.8017 16.0603 14.7343 16.6251 14.7946 17.1834C14.9278 18.3066 15.493 19.3337 16.3704 20.0473C20.5219 23.5173 28.0825 19.9715 31.2038 18.2441C31.1462 18.6725 31.0653 19.0974 30.9613 19.5169C26.7187 21.7899 23.4915 22.5172 21.0824 22.5172ZM31.34 42.125H1.00671V21.805C2.15653 24.9007 4.22596 27.5705 6.9371 29.4557C9.64824 31.341 12.8713 32.3514 16.1734 32.3514C19.4755 32.3514 22.6985 31.341 25.4096 29.4557C28.1208 27.5705 30.1902 24.9007 31.34 21.805V42.125Z" fill="white"/>
<path d="M44.5471 13.6061H47.732V11.3166C47.732 4.55675 52.2914 0.46875 59.1553 0.46875C63.7132 0.46875 66.6786 1.99462 68.1621 3.19383C67.1956 4.98191 66.7124 5.87595 65.7459 7.66404C63.9992 6.29335 61.821 5.57902 59.5955 5.64707C56.1346 5.64707 53.7181 7.60922 53.7181 11.4255V13.6061H68.9307V41.7334H62.9998V18.7296H53.7181V41.7334H47.7319V18.7296H44.5471L44.5471 13.6061Z" fill="white"/>
<path d="M100.523 24.7205C101.966 25.4106 102.687 25.7556 104.129 26.4456C107.571 28.063 110.195 30.1653 110.195 34.4242C110.195 39.2215 106.37 42.6716 100.195 42.6716C94.2939 42.6716 91.015 39.2757 90.0319 35.5024C91.846 34.5103 92.753 34.0142 94.5671 33.0221C94.8167 34.3567 95.5331 35.5625 96.5915 36.4294C97.6498 37.2963 98.983 37.7693 100.359 37.7659C102.708 37.7659 104.347 36.5799 104.347 34.37C104.347 32.8068 103.254 31.7827 100.632 30.5968L97.4079 29.0871C93.9657 27.5239 91.2882 25.5827 91.2882 21.0007C91.2882 16.6877 95.1671 13.1299 100.414 13.1299C105.659 13.1299 108.719 15.9332 110.195 19.3834C108.512 20.3321 107.67 20.8064 105.987 21.7552C105.58 20.6441 104.839 19.6822 103.862 18.9982C102.886 18.3142 101.721 17.9407 100.524 17.9278C98.3376 17.9278 96.8065 19.1138 96.8065 20.9465C96.8065 22.6181 97.8995 23.5345 100.523 24.7205Z" fill="white"/>
<path d="M116.457 18.8996H113.478V13.8142H116.457V6.56348H122.306V13.8142H129.89V18.8996H122.306V36.5931H129.077V41.7322H119.612C118.775 41.7322 117.973 41.4001 117.381 40.809C116.789 40.2179 116.457 39.4162 116.457 38.5802V18.8996Z" fill="white"/>
<path d="M166.741 41.7326H158.4L152.949 18.7226H152.731C150.529 27.9266 149.427 32.5286 147.225 41.7326H139.104C136.356 30.4787 134.982 24.8516 132.234 13.5977H138.176C140.117 22.78 141.087 27.3712 143.028 36.5536H143.246C145.339 27.3712 146.386 22.78 148.48 13.5977H157.31L162.488 36.5536H162.707C164.669 27.3712 165.65 22.78 167.612 13.5977H173.499C170.796 24.8516 169.444 30.4787 166.741 41.7326Z" fill="white"/>
<path d="M189.364 13.1299C194.402 13.1299 198.07 15.5018 199.44 18.3051H199.605C199.521 17.3912 199.484 16.4736 199.495 15.556V13.9928H204.916V41.8087H199.495V39.8148C199.495 38.5747 199.55 37.7659 199.605 37.0114H199.44C197.962 40.2997 194.073 42.6716 189.144 42.6716C180.601 42.6716 174.906 36.4723 174.906 27.9011C174.906 19.3292 180.93 13.1299 189.364 13.1299ZM199.276 27.8469C199.276 22.2402 195.442 18.2516 190.075 18.2516C184.819 18.2516 180.875 22.2402 180.875 27.8469C180.875 33.3994 184.819 37.4429 190.075 37.4429C195.442 37.4428 199.276 33.3994 199.276 27.8469Z" fill="white"/>
<path d="M217.145 41.7326C213.191 30.4787 211.215 24.8516 207.261 13.5977H213.666C216.604 22.78 218.073 27.3712 221.011 36.5536H221.231C224.169 27.3712 225.638 22.78 228.576 13.5977H234.927C230.995 24.8516 229.029 30.4787 225.097 41.7326H217.145Z" fill="white"/>
<path d="M250.323 42.6634C241.638 42.6634 235.396 36.3581 235.396 27.897C235.396 19.3274 241.638 13.1299 250.214 13.1299C258.409 13.1299 264 19.3816 264 27.897C264.004 28.6008 263.95 29.3038 263.837 29.9987H241.531C242.29 34.5793 245.6 37.4361 250.376 37.4361C251.916 37.5028 253.448 37.1938 254.839 36.536C256.231 35.8783 257.438 34.8919 258.356 33.6632C259.724 35.0646 260.408 35.7652 261.775 37.1666C260.46 38.9379 258.73 40.3642 256.734 41.322C254.739 42.2798 252.538 42.7402 250.323 42.6634ZM241.531 25.7953H258.193C257.759 21.3757 254.611 18.2502 250.105 18.2502C245.492 18.2502 242.29 21.2139 241.531 25.7953Z" fill="white"/>
<path fill-rule="evenodd" clip-rule="evenodd" d="M88.6253 7.0332V7.08291C88.6254 7.06635 88.6254 7.04978 88.6253 7.0332ZM88.6253 7.08291C88.6194 8.53093 88.0974 9.93654 87.1409 11.0778C86.1733 12.2321 84.8176 13.0487 83.2921 13.396C82.7366 13.5297 82.1653 13.5976 81.5916 13.598H88.6253V7.08291ZM87.0806 17.3007C88.0697 16.3191 88.6253 14.9876 88.6253 13.5993H75.4957V40.2622C75.4957 40.4555 75.534 40.647 75.6086 40.8256C75.6831 41.0042 75.7924 41.1665 75.9301 41.3032C76.0678 41.4398 76.2313 41.5483 76.4113 41.6223C76.5912 41.6962 76.7841 41.7343 76.9789 41.7343H81.4289V18.8339H83.3513C84.7501 18.8339 86.0915 18.2824 87.0806 17.3007Z" fill="white"/>
</svg>
