<svg width="65" height="50" viewBox="0 0 65 50" fill="none" xmlns="http://www.w3.org/2000/svg">
<path fill-rule="evenodd" clip-rule="evenodd" d="M15 25C15 38.8071 26.1929 50 40 50C53.8071 50 65 38.8071 65 25C65 11.1929 53.8071 0 40 0V15C45.5228 15 50 19.4772 50 25C50 30.5228 45.5228 35 40 35C34.4772 35 30 30.5228 30 25H15Z" fill="black"/>
<circle cx="39.5" cy="7.5" r="7.5" transform="rotate(-90 39.5 7.5)" fill="#F37E96"/>
<circle cx="7.5" cy="24.5" r="7.5" transform="rotate(-90 7.5 24.5)" fill="#94F9FF"/>
<circle cx="22.5" cy="24.5" r="7.5" transform="rotate(-90 22.5 24.5)" fill="#32D5AF"/>
<path d="M17 24V19C17 19 15.4722 20.3889 14.3611 20.3889C13.25 20.3889 12 19 12 19V24H17Z" fill="url(#paint0_linear_147_1994)"/>
<path d="M17 23.9962V29.5518C17 29.5518 15.4722 28.1629 14.3611 28.1629C13.25 28.1629 12 29.5518 12 29.5518V23.9962H17Z" fill="url(#paint1_linear_147_1994)"/>
<defs>
<linearGradient id="paint0_linear_147_1994" x1="11.4444" y1="21.2222" x2="17.2778" y2="21.2222" gradientUnits="userSpaceOnUse">
<stop stop-color="#94F9FF"/>
<stop offset="1" stop-color="#32D5AF"/>
</linearGradient>
<linearGradient id="paint1_linear_147_1994" x1="11.4444" y1="27.3295" x2="17.2778" y2="27.3295" gradientUnits="userSpaceOnUse">
<stop stop-color="#94F9FF"/>
<stop offset="1" stop-color="#32D5AF"/>
</linearGradient>
</defs>
</svg>
