<svg width="162" height="50" viewBox="0 0 162 50" fill="none" xmlns="http://www.w3.org/2000/svg">
<path fill-rule="evenodd" clip-rule="evenodd" d="M15 25C15 38.8071 26.1929 50 40 50C53.8071 50 65 38.8071 65 25C65 11.1929 53.8071 0 40 0V15C45.5228 15 50 19.4772 50 25C50 30.5228 45.5228 35 40 35C34.4772 35 30 30.5228 30 25H15Z" fill="black"/>
<circle cx="39.5" cy="7.5" r="7.5" transform="rotate(-90 39.5 7.5)" fill="#F37E96"/>
<circle cx="7.5" cy="24.5" r="7.5" transform="rotate(-90 7.5 24.5)" fill="#94F9FF"/>
<circle cx="22.5" cy="24.5" r="7.5" transform="rotate(-90 22.5 24.5)" fill="#32D5AF"/>
<path d="M17 24V19C17 19 15.4722 20.3889 14.3611 20.3889C13.25 20.3889 12 19 12 19V24H17Z" fill="url(#paint0_linear_23_4654)"/>
<path d="M17 23.9962V29.5518C17 29.5518 15.4722 28.1629 14.3611 28.1629C13.25 28.1629 12 29.5518 12 29.5518V23.9962H17Z" fill="url(#paint1_linear_23_4654)"/>
<path d="M79.592 24.416C79.592 23.328 79.8427 22.352 80.344 21.488C80.856 20.624 81.544 19.952 82.408 19.472C83.2827 18.9813 84.2373 18.736 85.272 18.736C86.456 18.736 87.5067 19.0293 88.424 19.616C89.352 20.192 90.024 21.0133 90.44 22.08H88.248C87.96 21.4933 87.56 21.056 87.048 20.768C86.536 20.48 85.944 20.336 85.272 20.336C84.536 20.336 83.88 20.5013 83.304 20.832C82.728 21.1627 82.2747 21.6373 81.944 22.256C81.624 22.8747 81.464 23.5947 81.464 24.416C81.464 25.2373 81.624 25.9573 81.944 26.576C82.2747 27.1947 82.728 27.6747 83.304 28.016C83.88 28.3467 84.536 28.512 85.272 28.512C85.944 28.512 86.536 28.368 87.048 28.08C87.56 27.792 87.96 27.3547 88.248 26.768H90.44C90.024 27.8347 89.352 28.656 88.424 29.232C87.5067 29.808 86.456 30.096 85.272 30.096C84.2267 30.096 83.272 29.856 82.408 29.376C81.544 28.8853 80.856 28.208 80.344 27.344C79.8427 26.48 79.592 25.504 79.592 24.416ZM95.919 30.144C95.087 30.144 94.335 29.9573 93.663 29.584C92.991 29.2 92.463 28.6667 92.079 27.984C91.695 27.2907 91.503 26.4907 91.503 25.584C91.503 24.688 91.7003 23.8933 92.095 23.2C92.4897 22.5067 93.0283 21.9733 93.711 21.6C94.3937 21.2267 95.1563 21.04 95.999 21.04C96.8417 21.04 97.6043 21.2267 98.287 21.6C98.9697 21.9733 99.5083 22.5067 99.903 23.2C100.298 23.8933 100.495 24.688 100.495 25.584C100.495 26.48 100.292 27.2747 99.887 27.968C99.4817 28.6613 98.927 29.2 98.223 29.584C97.5297 29.9573 96.7617 30.144 95.919 30.144ZM95.919 28.56C96.3883 28.56 96.8257 28.448 97.231 28.224C97.647 28 97.983 27.664 98.239 27.216C98.495 26.768 98.623 26.224 98.623 25.584C98.623 24.944 98.5003 24.4053 98.255 23.968C98.0097 23.52 97.6843 23.184 97.279 22.96C96.8737 22.736 96.4363 22.624 95.967 22.624C95.4977 22.624 95.0603 22.736 94.655 22.96C94.2603 23.184 93.9457 23.52 93.711 23.968C93.4763 24.4053 93.359 24.944 93.359 25.584C93.359 26.5333 93.599 27.2693 94.079 27.792C94.5697 28.304 95.183 28.56 95.919 28.56ZM106.266 21.04C106.959 21.04 107.578 21.184 108.122 21.472C108.677 21.76 109.109 22.1867 109.418 22.752C109.727 23.3173 109.882 24 109.882 24.8V30H108.074V25.072C108.074 24.2827 107.877 23.68 107.482 23.264C107.087 22.8373 106.549 22.624 105.866 22.624C105.183 22.624 104.639 22.8373 104.234 23.264C103.839 23.68 103.642 24.2827 103.642 25.072V30H101.818V21.184H103.642V22.192C103.941 21.8293 104.319 21.5467 104.778 21.344C105.247 21.1413 105.743 21.04 106.266 21.04ZM113.857 22.672V27.552C113.857 27.8827 113.931 28.1227 114.081 28.272C114.241 28.4107 114.507 28.48 114.881 28.48H116.001V30H114.561C113.739 30 113.11 29.808 112.673 29.424C112.235 29.04 112.017 28.416 112.017 27.552V22.672H110.977V21.184H112.017V18.992H113.857V21.184H116.001V22.672H113.857ZM125.282 25.376C125.282 25.7067 125.261 26.0053 125.218 26.272H118.482C118.535 26.976 118.797 27.5413 119.266 27.968C119.735 28.3947 120.311 28.608 120.994 28.608C121.975 28.608 122.669 28.1973 123.074 27.376H125.042C124.775 28.1867 124.29 28.8533 123.586 29.376C122.893 29.888 122.029 30.144 120.994 30.144C120.151 30.144 119.394 29.9573 118.722 29.584C118.061 29.2 117.538 28.6667 117.154 27.984C116.781 27.2907 116.594 26.4907 116.594 25.584C116.594 24.6773 116.775 23.8827 117.138 23.2C117.511 22.5067 118.029 21.9733 118.69 21.6C119.362 21.2267 120.13 21.04 120.994 21.04C121.826 21.04 122.567 21.2213 123.218 21.584C123.869 21.9467 124.375 22.4587 124.738 23.12C125.101 23.7707 125.282 24.5227 125.282 25.376ZM123.378 24.8C123.367 24.128 123.127 23.5893 122.658 23.184C122.189 22.7787 121.607 22.576 120.914 22.576C120.285 22.576 119.746 22.7787 119.298 23.184C118.85 23.5787 118.583 24.1173 118.498 24.8H123.378ZM130.373 25.536L133.221 30H131.157L129.253 27.008L127.461 30H125.557L128.405 25.664L125.557 21.184H127.621L129.525 24.176L131.317 21.184H133.221L130.373 25.536ZM136.229 22.672V27.552C136.229 27.8827 136.304 28.1227 136.453 28.272C136.613 28.4107 136.88 28.48 137.253 28.48H138.373V30H136.933C136.112 30 135.483 29.808 135.045 29.424C134.608 29.04 134.389 28.416 134.389 27.552V22.672H133.349V21.184H134.389V18.992H136.229V21.184H138.373V22.672H136.229Z" fill="black"/>
<path d="M81.912 3.88V15H80.088V7.384L76.696 15H75.432L72.024 7.384V15H70.2V3.88H72.168L76.072 12.6L79.96 3.88H81.912ZM83.2214 10.552C83.2214 9.66667 83.4027 8.88267 83.7654 8.2C84.1387 7.51733 84.64 6.98933 85.2694 6.616C85.9094 6.232 86.6134 6.04 87.3814 6.04C88.0747 6.04 88.6774 6.17867 89.1894 6.456C89.712 6.72267 90.128 7.05867 90.4374 7.464V6.184H92.2774V15H90.4374V13.688C90.128 14.104 89.7067 14.4507 89.1734 14.728C88.64 15.0053 88.032 15.144 87.3494 15.144C86.592 15.144 85.8987 14.952 85.2694 14.568C84.64 14.1733 84.1387 13.6293 83.7654 12.936C83.4027 12.232 83.2214 11.4373 83.2214 10.552ZM90.4374 10.584C90.4374 9.976 90.3094 9.448 90.0534 9C89.808 8.552 89.4827 8.21067 89.0774 7.976C88.672 7.74133 88.2347 7.624 87.7654 7.624C87.296 7.624 86.8587 7.74133 86.4534 7.976C86.048 8.2 85.7174 8.536 85.4614 8.984C85.216 9.42133 85.0934 9.944 85.0934 10.552C85.0934 11.16 85.216 11.6933 85.4614 12.152C85.7174 12.6107 86.048 12.9627 86.4534 13.208C86.8694 13.4427 87.3067 13.56 87.7654 13.56C88.2347 13.56 88.672 13.4427 89.0774 13.208C89.4827 12.9733 89.808 12.632 90.0534 12.184C90.3094 11.7253 90.4374 11.192 90.4374 10.584ZM96.0171 7.464C96.2838 7.016 96.6358 6.66933 97.0731 6.424C97.5211 6.168 98.0491 6.04 98.6571 6.04V7.928H98.1931C97.4785 7.928 96.9345 8.10933 96.5611 8.472C96.1985 8.83467 96.0171 9.464 96.0171 10.36V15H94.1931V6.184H96.0171V7.464ZM100.782 5.016C100.451 5.016 100.174 4.904 99.9497 4.68C99.7257 4.456 99.6137 4.17867 99.6137 3.848C99.6137 3.51733 99.7257 3.24 99.9497 3.016C100.174 2.792 100.451 2.68 100.782 2.68C101.102 2.68 101.374 2.792 101.598 3.016C101.822 3.24 101.934 3.51733 101.934 3.848C101.934 4.17867 101.822 4.456 101.598 4.68C101.374 4.904 101.102 5.016 100.782 5.016ZM101.678 6.184V15H99.8537V6.184H101.678ZM105.721 7.672V12.552C105.721 12.8827 105.795 13.1227 105.945 13.272C106.105 13.4107 106.371 13.48 106.745 13.48H107.865V15H106.425C105.603 15 104.974 14.808 104.537 14.424C104.099 14.04 103.881 13.416 103.881 12.552V7.672H102.841V6.184H103.881V3.992H105.721V6.184H107.865V7.672H105.721ZM109.994 5.016C109.663 5.016 109.386 4.904 109.162 4.68C108.938 4.456 108.826 4.17867 108.826 3.848C108.826 3.51733 108.938 3.24 109.162 3.016C109.386 2.792 109.663 2.68 109.994 2.68C110.314 2.68 110.586 2.792 110.81 3.016C111.034 3.24 111.146 3.51733 111.146 3.848C111.146 4.17867 111.034 4.456 110.81 4.68C110.586 4.904 110.314 5.016 109.994 5.016ZM110.89 6.184V15H109.066V6.184H110.89ZM123.476 6.04C124.17 6.04 124.788 6.184 125.332 6.472C125.887 6.76 126.319 7.18667 126.628 7.752C126.948 8.31733 127.108 9 127.108 9.8V15H125.3V10.072C125.3 9.28267 125.103 8.68 124.708 8.264C124.314 7.83733 123.775 7.624 123.092 7.624C122.41 7.624 121.866 7.83733 121.46 8.264C121.066 8.68 120.868 9.28267 120.868 10.072V15H119.06V10.072C119.06 9.28267 118.863 8.68 118.468 8.264C118.074 7.83733 117.535 7.624 116.852 7.624C116.17 7.624 115.626 7.83733 115.22 8.264C114.826 8.68 114.628 9.28267 114.628 10.072V15H112.804V6.184H114.628V7.192C114.927 6.82933 115.306 6.54667 115.764 6.344C116.223 6.14133 116.714 6.04 117.236 6.04C117.94 6.04 118.57 6.18933 119.124 6.488C119.679 6.78667 120.106 7.21867 120.404 7.784C120.671 7.25067 121.087 6.82933 121.652 6.52C122.218 6.2 122.826 6.04 123.476 6.04ZM137.029 10.376C137.029 10.7067 137.008 11.0053 136.965 11.272H130.229C130.283 11.976 130.544 12.5413 131.013 12.968C131.483 13.3947 132.059 13.608 132.741 13.608C133.723 13.608 134.416 13.1973 134.821 12.376H136.789C136.523 13.1867 136.037 13.8533 135.333 14.376C134.64 14.888 133.776 15.144 132.741 15.144C131.899 15.144 131.141 14.9573 130.469 14.584C129.808 14.2 129.285 13.6667 128.901 12.984C128.528 12.2907 128.341 11.4907 128.341 10.584C128.341 9.67733 128.523 8.88267 128.885 8.2C129.259 7.50667 129.776 6.97333 130.437 6.6C131.109 6.22667 131.877 6.04 132.741 6.04C133.573 6.04 134.315 6.22133 134.965 6.584C135.616 6.94667 136.123 7.45867 136.485 8.12C136.848 8.77067 137.029 9.52267 137.029 10.376ZM135.125 9.8C135.115 9.128 134.875 8.58933 134.405 8.184C133.936 7.77867 133.355 7.576 132.661 7.576C132.032 7.576 131.493 7.77867 131.045 8.184C130.597 8.57867 130.331 9.11733 130.245 9.8H135.125Z" fill="black"/>
<defs>
<linearGradient id="paint0_linear_23_4654" x1="11.4444" y1="21.2222" x2="17.2778" y2="21.2222" gradientUnits="userSpaceOnUse">
<stop stop-color="#94F9FF"/>
<stop offset="1" stop-color="#32D5AF"/>
</linearGradient>
<linearGradient id="paint1_linear_23_4654" x1="11.4444" y1="27.3295" x2="17.2778" y2="27.3295" gradientUnits="userSpaceOnUse">
<stop stop-color="#94F9FF"/>
<stop offset="1" stop-color="#32D5AF"/>
</linearGradient>
</defs>
</svg>
